<?xml version="1.0" encoding="UTF-8"?><svg version="1.1" width="512px" height="512px" viewBox="0 0 512.0 512.0" xmlns="http://www.w3.org/2000/svg" xmlns:xlink="http://www.w3.org/1999/xlink"><defs><clipPath id="i0"><path d="M512,0 L512,512 L0,512 L0,0 L512,0 Z"></path></clipPath><clipPath id="i1"><path d="M256,0 C397.384896,0 512,114.615104 512,256 C512,397.384896 397.384896,512 256,512 C114.615104,512 0,397.384896 0,256 C0,114.615104 114.615104,0 256,0 Z"></path></clipPath><clipPath id="i2"><path d="M226.286943,0 C234.959155,0 241.722402,1.61730431 246.576684,4.85191293 C251.430966,8.08652155 254.893235,12.2502199 256.963492,17.3430079 C259.034547,22.435796 260.433278,27.907102 261.162081,33.7569261 C261.890884,39.6067502 262.70772,47.4179859 263.61259,57.1906332 L286.576088,252.505937 C288.502157,267.371372 288.474238,278.176341 286.492334,284.920844 C284.429535,291.940633 279.566306,298.37544 271.902645,304.225264 C264.238985,310.075088 256.210923,313 247.81846,313 C242.922856,313 238.979418,312.139732 235.988146,310.419195 C232.996875,308.698659 230.747112,306.358729 229.238859,303.399406 C227.730605,300.440084 226.51265,295.897867 225.584992,289.772757 C224.657334,283.647647 223.901984,278.245163 223.318942,273.565303 L223.296315,273.321342 C221.576135,254.774451 204.769251,237.978023 185.757088,235.80547 C184.41866,235.652525 183.088434,235.575858 181.773184,235.575858 L110.020534,235.575858 C100.310582,235.575858 91.9443408,239.746246 87.0508246,247.025755 L68.6549338,274.391161 C58.4709103,289.531882 50.5721146,299.751869 44.9585466,305.051121 C39.3449786,310.350374 31.9223397,313 22.69063,313 C14.8576642,313 8.7630461,310.17832 4.40677566,304.53496 C0.0505052134,298.891601 -1.07600718,292.491205 1.02723846,285.333773 C2.24064941,281.204485 4.19387934,276.937555 6.88692825,272.532982 C9.57997715,268.128408 13.6877975,262.003298 19.2103892,254.157652 L155.648094,57.603562 C159.544413,51.9602023 164.229011,45.1812885 169.701889,37.2668206 C175.174767,29.3523527 180.463099,22.7799033 185.566883,17.5494723 C190.670667,12.3190413 196.600205,8.08652155 203.355497,4.85191293 C210.11079,1.61730431 217.754605,0 226.286943,0 Z M198.185267,85.3240966 C196.560843,85.8653934 195.062825,87.0370087 194.096483,88.5219782 L135.939915,177.890627 C134.141887,180.65364 134.659077,183.696893 137.09509,184.687924 C137.602682,184.894425 138.171133,185 138.77541,185 L202.696362,185 C205.596387,185 208.652607,182.620415 209.52262,179.685048 C209.706997,179.062972 209.78205,178.445725 209.744361,177.861413 L203.979977,88.4927642 C203.802136,85.735592 201.207756,84.3169312 198.185267,85.3240966 Z"></path></clipPath></defs><g clip-path="url(#i0)"><g transform="translate(-0.5 0.0)"><g clip-path="url(#i1)"><polygon points="0.5,0 512,0 512,512 0.5,512 0.5,0" stroke="none" fill="#004D40"></polygon></g><g transform="translate(94.5 99.0)"><g clip-path="url(#i2)"><polygon points="0,0 288,0 288,313 0,313 0,0" stroke="none" fill="#FB9800"></polygon></g></g></g></g></svg>